# xmcd
#
# Track frame offsets: 
#        150
#        17843
#        37615
#        54130
#        75475
#        96188
#        113603
#        132673
#        149743
#        170805
#        191148
#
# Disc length: 3043 seconds
#
# Revision: 3
# Processed by: cddbd v1.5.2PL0 Copyright (c) Steve Scherf et al.
# Submitted via: ExactAudioCopyFreeDBPlugin 1.0
#
DISCID=910be10b
DTITLE=The Streets - A Grand Don't Come For Free
DYEAR=2004
DGENRE=Hip-Hop, Electronic
TTITLE0=It Was Supposed To Be So Easy
TTITLE1=Could Well Be In
TTITLE2=Not Addicted
TTITLE3=Blinded By The Lights
TTITLE4=Wouldn't Have It Any Other Way
TTITLE5=Get Out Of My House
TTITLE6=Fit But You Know It
TTITLE7=Such A Twat
TTITLE8=What Is He Thinking?
TTITLE9=Dry Your Eyes
TTITLE10=Empty Cans
EXTD=YEAR: 2004
EXTT0=
EXTT1=
EXTT2=
EXTT3=
EXTT4=
EXTT5=
EXTT6=
EXTT7=
EXTT8=
EXTT9=
EXTT10=
PLAYORDER=
